<svg width="47" height="14" viewBox="0 0 47 14" fill="none" xmlns="http://www.w3.org/2000/svg">
<path d="M8.316 9.228C8.316 7.282 6.622 6.792 5.068 6.414V3.586C5.81 3.67 6.594 3.908 7.336 4.342L7.91 2.928C7.154 2.438 6.104 2.13 5.068 2.074V0.519999H3.92V2.102C1.736 2.312 0.7 3.558 0.7 4.986C0.7 6.932 2.366 7.436 3.92 7.814V10.614C2.856 10.516 1.806 10.11 1.12 9.55L0.49 10.964C1.218 11.594 2.548 12.042 3.92 12.126V13.68H5.068V12.112C7.266 11.888 8.316 10.656 8.316 9.228ZM2.506 4.902C2.506 4.286 2.926 3.782 3.92 3.628V6.12C3.108 5.882 2.506 5.574 2.506 4.902ZM5.068 10.586V8.108C5.908 8.346 6.524 8.668 6.524 9.354C6.524 9.956 6.09 10.432 5.068 10.586ZM12.588 2.06C10.586 2.06 9.00397 3.292 9.00397 5.238C9.00397 7.072 10.446 8.248 12.378 8.248C13.47 8.248 14.408 7.912 14.996 7.226V7.24C14.996 9.466 13.834 10.614 11.986 10.614C11.3 10.614 10.656 10.488 10.124 10.138L9.45197 11.51C10.11 11.93 11.048 12.14 12.028 12.14C14.87 12.14 16.83 10.292 16.83 6.932C16.83 3.782 15.262 2.06 12.588 2.06ZM12.728 6.82C11.538 6.82 10.768 6.176 10.768 5.154C10.768 4.132 11.552 3.488 12.686 3.488C13.988 3.488 14.716 4.216 14.716 5.14C14.716 6.106 13.904 6.82 12.728 6.82ZM21.3653 2.06C19.3633 2.06 17.7813 3.292 17.7813 5.238C17.7813 7.072 19.2233 8.248 21.1553 8.248C22.2473 8.248 23.1853 7.912 23.7733 7.226V7.24C23.7733 9.466 22.6113 10.614 20.7633 10.614C20.0773 10.614 19.4333 10.488 18.9013 10.138L18.2293 11.51C18.8873 11.93 19.8253 12.14 20.8053 12.14C23.6473 12.14 25.6073 10.292 25.6073 6.932C25.6073 3.782 24.0393 2.06 21.3653 2.06ZM21.5053 6.82C20.3153 6.82 19.5453 6.176 19.5453 5.154C19.5453 4.132 20.3293 3.488 21.4633 3.488C22.7653 3.488 23.4933 4.216 23.4933 5.14C23.4933 6.106 22.6813 6.82 21.5053 6.82ZM27.7666 12.098C28.3966 12.098 28.9146 11.608 28.9146 10.936C28.9146 10.236 28.3966 9.774 27.7666 9.774C27.1366 9.774 26.6186 10.236 26.6186 10.936C26.6186 11.608 27.1366 12.098 27.7666 12.098ZM33.3966 2.06C31.3946 2.06 29.8126 3.292 29.8126 5.238C29.8126 7.072 31.2546 8.248 33.1866 8.248C34.2786 8.248 35.2166 7.912 35.8046 7.226V7.24C35.8046 9.466 34.6426 10.614 32.7946 10.614C32.1086 10.614 31.4646 10.488 30.9326 10.138L30.2606 11.51C30.9186 11.93 31.8566 12.14 32.8366 12.14C35.6786 12.14 37.6386 10.292 37.6386 6.932C37.6386 3.782 36.0706 2.06 33.3966 2.06ZM33.5366 6.82C32.3466 6.82 31.5766 6.176 31.5766 5.154C31.5766 4.132 32.3606 3.488 33.4946 3.488C34.7966 3.488 35.5246 4.216 35.5246 5.14C35.5246 6.106 34.7126 6.82 33.5366 6.82ZM41.9359 5.994H40.9979L41.2079 3.726H45.4219V2.2H39.6679L39.1639 7.534H41.5299C43.5599 7.534 44.1619 8.122 44.1619 9.06C44.1619 9.984 43.3919 10.558 42.0899 10.558C40.9839 10.558 39.9199 10.18 39.2059 9.592L38.4359 11.006C39.3319 11.72 40.7319 12.14 42.1179 12.14C44.7499 12.14 45.9959 10.712 45.9959 8.99C45.9959 7.254 44.8339 5.994 41.9359 5.994Z" fill="black"/>
<path d="M0 7.52H46.4299V8.22H0V7.52Z" fill="black"/>
</svg>
