<svg width="26" height="14" viewBox="0 0 26 14" fill="none" xmlns="http://www.w3.org/2000/svg">
<path d="M8.316 9.228C8.316 7.282 6.622 6.792 5.068 6.414V3.586C5.81 3.67 6.594 3.908 7.336 4.342L7.91 2.928C7.154 2.438 6.104 2.13 5.068 2.074V0.519999H3.92V2.102C1.736 2.312 0.7 3.558 0.7 4.986C0.7 6.932 2.366 7.436 3.92 7.814V10.614C2.856 10.516 1.806 10.11 1.12 9.55L0.49 10.964C1.218 11.594 2.548 12.042 3.92 12.126V13.68H5.068V12.112C7.266 11.888 8.316 10.656 8.316 9.228ZM2.506 4.902C2.506 4.286 2.926 3.782 3.92 3.628V6.12C3.108 5.882 2.506 5.574 2.506 4.902ZM5.068 10.586V8.108C5.908 8.346 6.524 8.668 6.524 9.354C6.524 9.956 6.09 10.432 5.068 10.586ZM13.5243 6.246L15.9043 3.418V2.2H9.22633V3.726H13.6783L11.4523 6.372V7.618H12.3483C13.8323 7.618 14.4763 8.192 14.4763 9.074C14.4763 9.984 13.7063 10.558 12.4043 10.558C11.2983 10.558 10.2343 10.18 9.53433 9.592L8.75033 11.006C9.66033 11.72 11.0463 12.14 12.4323 12.14C15.0643 12.14 16.3103 10.712 16.3103 9.06C16.3103 7.59 15.3723 6.484 13.5243 6.246ZM20.8048 2.06C18.8028 2.06 17.2208 3.292 17.2208 5.238C17.2208 7.072 18.6628 8.248 20.5948 8.248C21.6868 8.248 22.6248 7.912 23.2128 7.226V7.24C23.2128 9.466 22.0508 10.614 20.2028 10.614C19.5168 10.614 18.8728 10.488 18.3408 10.138L17.6688 11.51C18.3268 11.93 19.2648 12.14 20.2448 12.14C23.0868 12.14 25.0468 10.292 25.0468 6.932C25.0468 3.782 23.4788 2.06 20.8048 2.06ZM20.9448 6.82C19.7548 6.82 18.9848 6.176 18.9848 5.154C18.9848 4.132 19.7688 3.488 20.9028 3.488C22.2048 3.488 22.9328 4.216 22.9328 5.14C22.9328 6.106 22.1208 6.82 20.9448 6.82Z" fill="black"/>
<path d="M0 7.52H25.6628V8.22H0V7.52Z" fill="black"/>
</svg>
