<svg width="38" height="14" viewBox="0 0 38 14" fill="none" xmlns="http://www.w3.org/2000/svg">
<path d="M8.316 9.228C8.316 7.282 6.622 6.792 5.068 6.414V3.586C5.81 3.67 6.594 3.908 7.336 4.342L7.91 2.928C7.154 2.438 6.104 2.13 5.068 2.074V0.519999H3.92V2.102C1.736 2.312 0.7 3.558 0.7 4.986C0.7 6.932 2.366 7.436 3.92 7.814V10.614C2.856 10.516 1.806 10.11 1.12 9.55L0.49 10.964C1.218 11.594 2.548 12.042 3.92 12.126V13.68H5.068V12.112C7.266 11.888 8.316 10.656 8.316 9.228ZM2.506 4.902C2.506 4.286 2.926 3.782 3.92 3.628V6.12C3.108 5.882 2.506 5.574 2.506 4.902ZM5.068 10.586V8.108C5.908 8.346 6.524 8.668 6.524 9.354C6.524 9.956 6.09 10.432 5.068 10.586ZM9.05997 2.2V5.406H10.754V3.74H14.604L10.922 12H12.868L16.676 3.418V2.2H9.05997ZM18.1963 12.098C18.8263 12.098 19.3443 11.608 19.3443 10.936C19.3443 10.236 18.8263 9.774 18.1963 9.774C17.5663 9.774 17.0483 10.236 17.0483 10.936C17.0483 11.608 17.5663 12.098 18.1963 12.098ZM24.831 6.246L27.211 3.418V2.2H20.533V3.726H24.985L22.759 6.372V7.618H23.655C25.139 7.618 25.783 8.192 25.783 9.074C25.783 9.984 25.013 10.558 23.711 10.558C22.605 10.558 21.541 10.18 20.841 9.592L20.057 11.006C20.967 11.72 22.353 12.14 23.739 12.14C26.371 12.14 27.617 10.712 27.617 9.06C27.617 7.59 26.679 6.484 24.831 6.246ZM37.5434 8.234H35.8074V6.26H34.0994V8.234H30.8934L35.4434 2.2H33.4974L28.6674 8.514V9.774H34.0434V12H35.8074V9.774H37.5434V8.234Z" fill="black"/>
<path d="M0 7.52H37.6974V8.22H0V7.52Z" fill="black"/>
</svg>
